<?xml version="1.0" encoding="UTF-8" standalone="no"?>
<!DOCTYPE svg PUBLIC "-//W3C//DTD SVG 1.1//EN"
 "http://www.w3.org/Graphics/SVG/1.1/DTD/svg11.dtd">
<!-- Generated by graphviz version 2.30.1 (20130519.1752)
 -->
<!-- Title: trace Pages: 1 -->
<svg width="1281pt" height="1052pt"
 viewBox="0.00 0.00 1281.00 1052.00" xmlns="http://www.w3.org/2000/svg" xmlns:xlink="http://www.w3.org/1999/xlink">
<g id="graph0" class="graph" transform="scale(1 1) rotate(0) translate(4 1048)">
<title>trace</title>
<polygon fill="white" stroke="white" points="-4,5 -4,-1048 1278,-1048 1278,5 -4,5"/>
<g id="clust1" class="cluster"><title>cluster_15169</title>
<polygon fill="none" stroke="#608686" points="741,-154 741,-396 1062,-396 1062,-154 741,-154"/>
<text text-anchor="middle" x="901.5" y="-384" font-family="Times,serif" font-size="10.00">15169</text>
<text text-anchor="middle" x="901.5" y="-373" font-family="Times,serif" font-size="10.00">[GOOGLE &#45; Google Inc.]</text>
</g>
<g id="clust2" class="cluster"><title>cluster_25091</title>
<polygon fill="none" stroke="#60baba" points="741,-494 741,-802 1015,-802 1015,-494 741,-494"/>
<text text-anchor="middle" x="878" y="-790" font-family="Times,serif" font-size="10.00">25091</text>
<text text-anchor="middle" x="878" y="-779" font-family="Times,serif" font-size="10.00">[IP&#45;MAX IP&#45;Max SA]</text>
</g>
<g id="clust3" class="cluster"><title>cluster_513</title>
<polygon fill="none" stroke="#60ffff" points="300,-494 300,-576 557,-576 557,-494 300,-494"/>
<text text-anchor="middle" x="428.5" y="-564" font-family="Times,serif" font-size="10.00">513</text>
<text text-anchor="middle" x="428.5" y="-553" font-family="Times,serif" font-size="10.00">[CERN CERN &#45; European Organization for Nuclear Research]</text>
</g>
<g id="clust4" class="cluster"><title>cluster_20940</title>
<polygon fill="none" stroke="#868660" points="1070,-228 1070,-312 1265,-312 1265,-228 1070,-228"/>
<text text-anchor="middle" x="1167.5" y="-300" font-family="Times,serif" font-size="10.00">20940</text>
<text text-anchor="middle" x="1167.5" y="-289" font-family="Times,serif" font-size="10.00">[AKAMAI&#45;ASN1 Akamai International B.V.]</text>
</g>
<g id="clust5" class="cluster"><title>cluster_8235</title>
<polygon fill="none" stroke="#86ba86" points="611,-404 611,-486 877,-486 877,-404 611,-404"/>
<text text-anchor="middle" x="744" y="-474" font-family="Times,serif" font-size="10.00">8235</text>
<text text-anchor="middle" x="744" y="-463" font-family="Times,serif" font-size="10.00">[TIX&#45;ZH .]</text>
</g>
<g id="clust6" class="cluster"><title>cluster_8075</title>
<polygon fill="none" stroke="#86ffba" points="277,-229 277,-396 733,-396 733,-229 277,-229"/>
<text text-anchor="middle" x="505" y="-384" font-family="Times,serif" font-size="10.00">8075</text>
<text text-anchor="middle" x="505" y="-373" font-family="Times,serif" font-size="10.00">[MICROSOFT&#45;CORP&#45;&#45;&#45;MSN&#45;AS&#45;BLOCK &#45; Microsoft Corp]</text>
</g>
<g id="clust7" class="cluster"><title>cluster_6893</title>
<polygon fill="none" stroke="#8660ff" points="843,-810 843,-1036 1040,-1036 1040,-810 843,-810"/>
<text text-anchor="middle" x="941.5" y="-1024" font-family="Times,serif" font-size="10.00">6893</text>
<text text-anchor="middle" x="941.5" y="-1013" font-family="Times,serif" font-size="10.00">[SAITIS&#45;NETWORK Saitis Network, N.Desir]</text>
</g>
<g id="clust8" class="cluster"><title>cluster_559</title>
<polygon fill="none" stroke="#baba60" points="8,-8 8,-486 269,-486 269,-8 8,-8"/>
<text text-anchor="middle" x="138.5" y="-474" font-family="Times,serif" font-size="10.00">559</text>
<text text-anchor="middle" x="138.5" y="-463" font-family="Times,serif" font-size="10.00">[SWITCH SWITCH, Swiss Education and Research Network]</text>
</g>
<g id="clust9" class="cluster"><title>cluster_AS3303</title>
<polygon fill="none" stroke="#baff86" points="984,-404 984,-486 1169,-486 1169,-404 984,-404"/>
<text text-anchor="middle" x="1076.5" y="-474" font-family="Times,serif" font-size="10.00">AS3303</text>
<text text-anchor="middle" x="1076.5" y="-463" font-family="Times,serif" font-size="10.00">[SWISSCOM Swisscom (Switzerland) Ltd]</text>
</g>
<!-- 72.14.232.208 -->
<g id="node1" class="node"><title>72.14.232.208</title>
<ellipse fill="#608686" stroke="black" cx="811" cy="-339" rx="61.6163" ry="18"/>
<text text-anchor="middle" x="811" y="-335.3" font-family="Times,serif" font-size="14.00">72.14.232.208</text>
</g>
<!-- 64.233.174.245 -->
<g id="node2" class="node"><title>64.233.174.245</title>
<ellipse fill="#608686" stroke="black" cx="844" cy="-255" rx="65.9423" ry="18"/>
<text text-anchor="middle" x="844" y="-251.3" font-family="Times,serif" font-size="14.00">64.233.174.245</text>
</g>
<!-- 72.14.232.208&#45;&gt;64.233.174.245 -->
<g id="edge23" class="edge"><title>72.14.232.208&#45;&gt;64.233.174.245</title>
<path fill="none" stroke="#a04040" d="M812.362,-320.61C815.685,-309.371 821.423,-294.542 827.24,-281.925"/>
<polygon fill="#a04040" stroke="#a04040" points="830.449,-283.329 831.665,-272.804 824.151,-280.273 830.449,-283.329"/>
</g>
<!-- 72.14.232.208&#45;&gt;64.233.174.245 -->
<g id="edge55" class="edge"><title>72.14.232.208&#45;&gt;64.233.174.245</title>
<path fill="none" stroke="#704070" d="M823.43,-321.01C829.08,-309.979 835.221,-295.368 839.594,-282.793"/>
<polygon fill="#704070" stroke="#704070" points="842.933,-283.843 842.679,-273.251 836.272,-281.689 842.933,-283.843"/>
</g>
<!-- unk2 -->
<g id="node32" class="node"><title>unk2</title>
<ellipse fill="none" stroke="black" cx="1099" cy="-181" rx="28.3955" ry="18"/>
<text text-anchor="middle" x="1099" y="-177.3" font-family="Times,serif" font-size="14.00">unk2</text>
</g>
<!-- 64.233.174.245&#45;&gt;unk2 -->
<g id="edge24" class="edge"><title>64.233.174.245&#45;&gt;unk2</title>
<path fill="none" stroke="#a04040" d="M899.039,-244.756C944.715,-236.112 1010.88,-221.316 1066,-200 1067.37,-199.47 1068.75,-198.895 1070.14,-198.286"/>
<polygon fill="#a04040" stroke="#a04040" points="1071.69,-201.422 1079.15,-193.903 1068.63,-195.127 1071.69,-201.422"/>
</g>
<!-- 173.194.40.9 -->
<g id="node3" class="node"><title>173.194.40.9</title>
<polygon fill="green" stroke="black" points="749.5,-163 749.5,-199 906.5,-199 906.5,-163 749.5,-163"/>
<text text-anchor="middle" x="794" y="-177.3" font-family="Times,serif" font-size="14.00">173.194.40.9</text>
<polyline fill="none" stroke="black" points="838.5,-163 838.5,-199 "/>
<text text-anchor="middle" x="872.5" y="-177.3" font-family="Times,serif" font-size="14.00">www SA</text>
</g>
<!-- 64.233.174.245&#45;&gt;173.194.40.9 -->
<g id="edge56" class="edge"><title>64.233.174.245&#45;&gt;173.194.40.9:T80</title>
<path fill="none" stroke="#704070" d="M858.5,-237.216C863.938,-229.645 869.375,-220.158 871.754,-210.142"/>
<polygon fill="#704070" stroke="#704070" points="875.254,-210.352 873,-200 868.307,-209.499 875.254,-210.352"/>
</g>
<!-- 173.194.40.24 -->
<g id="node4" class="node"><title>173.194.40.24</title>
<polygon fill="green" stroke="black" points="890.5,-321 890.5,-357 1053.5,-357 1053.5,-321 890.5,-321"/>
<text text-anchor="middle" x="938" y="-335.3" font-family="Times,serif" font-size="14.00">173.194.40.24</text>
<polyline fill="none" stroke="black" points="985.5,-321 985.5,-357 "/>
<text text-anchor="middle" x="1019.5" y="-335.3" font-family="Times,serif" font-size="14.00">www SA</text>
</g>
<!-- 46.20.254.46 -->
<g id="node5" class="node"><title>46.20.254.46</title>
<ellipse fill="#60baba" stroke="black" cx="949" cy="-520" rx="57.2688" ry="18"/>
<text text-anchor="middle" x="949" y="-516.3" font-family="Times,serif" font-size="14.00">46.20.254.46</text>
</g>
<!-- 77.95.71.9 -->
<g id="node29" class="node"><title>77.95.71.9</title>
<ellipse fill="#baff86" stroke="black" cx="1044" cy="-430" rx="48.6179" ry="18"/>
<text text-anchor="middle" x="1044" y="-426.3" font-family="Times,serif" font-size="14.00">77.95.71.9</text>
</g>
<!-- 46.20.254.46&#45;&gt;77.95.71.9 -->
<g id="edge44" class="edge"><title>46.20.254.46&#45;&gt;77.95.71.9</title>
<path fill="none" stroke="#7070a0" d="M966.869,-502.448C981.65,-488.756 1002.8,-469.161 1019.22,-453.953"/>
<polygon fill="#7070a0" stroke="#7070a0" points="1021.89,-456.248 1026.85,-446.885 1017.14,-451.113 1021.89,-456.248"/>
</g>
<!-- 46.20.254.49 -->
<g id="node6" class="node"><title>46.20.254.49</title>
<ellipse fill="#60baba" stroke="black" cx="941" cy="-674" rx="57.2688" ry="18"/>
<text text-anchor="middle" x="941" y="-670.3" font-family="Times,serif" font-size="14.00">46.20.254.49</text>
</g>
<!-- 46.20.251.17 -->
<g id="node7" class="node"><title>46.20.251.17</title>
<ellipse fill="#60baba" stroke="black" cx="941" cy="-602" rx="57.2688" ry="18"/>
<text text-anchor="middle" x="941" y="-598.3" font-family="Times,serif" font-size="14.00">46.20.251.17</text>
</g>
<!-- 46.20.254.49&#45;&gt;46.20.251.17 -->
<g id="edge5" class="edge"><title>46.20.254.49&#45;&gt;46.20.251.17</title>
<path fill="none" stroke="#a07070" d="M935.122,-656.055C934.304,-648.346 934.061,-639.027 934.395,-630.364"/>
<polygon fill="#a07070" stroke="#a07070" points="937.894,-630.491 935.087,-620.275 930.911,-630.012 937.894,-630.491"/>
</g>
<!-- 46.20.254.49&#45;&gt;46.20.251.17 -->
<g id="edge19" class="edge"><title>46.20.254.49&#45;&gt;46.20.251.17</title>
<path fill="none" stroke="#a04040" d="M946.878,-656.055C947.696,-648.346 947.939,-639.027 947.605,-630.364"/>
<polygon fill="#a04040" stroke="#a04040" points="951.089,-630.012 946.913,-620.275 944.106,-630.491 951.089,-630.012"/>
</g>
<!-- 46.20.251.26 -->
<g id="node9" class="node"><title>46.20.251.26</title>
<ellipse fill="#60baba" stroke="black" cx="807" cy="-602" rx="57.2688" ry="18"/>
<text text-anchor="middle" x="807" y="-598.3" font-family="Times,serif" font-size="14.00">46.20.251.26</text>
</g>
<!-- 46.20.254.49&#45;&gt;46.20.251.26 -->
<g id="edge30" class="edge"><title>46.20.254.49&#45;&gt;46.20.251.26</title>
<path fill="none" stroke="#a02020" d="M912.582,-658.155C892.684,-647.76 865.9,-633.769 844.288,-622.479"/>
<polygon fill="#a02020" stroke="#a02020" points="845.861,-619.352 835.377,-617.824 842.62,-625.556 845.861,-619.352"/>
</g>
<!-- 46.20.254.49&#45;&gt;46.20.251.17 -->
<g id="edge42" class="edge"><title>46.20.254.49&#45;&gt;46.20.251.17</title>
<path fill="none" stroke="#7070a0" d="M935.122,-656.055C934.304,-648.346 934.061,-639.027 934.395,-630.364"/>
<polygon fill="#7070a0" stroke="#7070a0" points="937.894,-630.491 935.087,-620.275 930.911,-630.012 937.894,-630.491"/>
</g>
<!-- 46.20.254.49&#45;&gt;46.20.251.17 -->
<g id="edge51" class="edge"><title>46.20.254.49&#45;&gt;46.20.251.17</title>
<path fill="none" stroke="#704070" d="M946.878,-656.055C947.696,-648.346 947.939,-639.027 947.605,-630.364"/>
<polygon fill="#704070" stroke="#704070" points="951.089,-630.012 946.913,-620.275 944.106,-630.491 951.089,-630.012"/>
</g>
<!-- 46.20.254.106 -->
<g id="node10" class="node"><title>46.20.254.106</title>
<ellipse fill="#60baba" stroke="black" cx="811" cy="-520" rx="61.6163" ry="18"/>
<text text-anchor="middle" x="811" y="-516.3" font-family="Times,serif" font-size="14.00">46.20.254.106</text>
</g>
<!-- 46.20.251.17&#45;&gt;46.20.254.106 -->
<g id="edge6" class="edge"><title>46.20.251.17&#45;&gt;46.20.254.106</title>
<path fill="none" stroke="#a07070" d="M900.401,-589.225C891.058,-585.449 881.447,-580.949 873,-576 857.697,-567.035 841.975,-555.178 830.018,-544.769"/>
<polygon fill="#a07070" stroke="#a07070" points="832.15,-541.977 822.393,-537.847 827.445,-547.16 832.15,-541.977"/>
</g>
<!-- 46.20.251.17&#45;&gt;46.20.254.106 -->
<g id="edge20" class="edge"><title>46.20.251.17&#45;&gt;46.20.254.106</title>
<path fill="none" stroke="#a04040" d="M911.363,-586.402C904.537,-583.276 897.431,-579.768 891,-576 874.693,-566.447 857.911,-553.61 843.804,-542.741"/>
<polygon fill="#a04040" stroke="#a04040" points="845.892,-539.931 835.831,-536.608 841.624,-545.479 845.892,-539.931"/>
</g>
<!-- 46.20.251.17&#45;&gt;46.20.254.46 -->
<g id="edge43" class="edge"><title>46.20.251.17&#45;&gt;46.20.254.46</title>
<path fill="none" stroke="#7070a0" d="M942.736,-583.641C943.77,-573.297 945.106,-559.941 946.278,-548.221"/>
<polygon fill="#7070a0" stroke="#7070a0" points="949.782,-548.349 947.295,-538.05 942.817,-547.652 949.782,-548.349"/>
</g>
<!-- 46.20.251.17&#45;&gt;46.20.254.106 -->
<g id="edge52" class="edge"><title>46.20.251.17&#45;&gt;46.20.254.106</title>
<path fill="none" stroke="#704070" d="M905.643,-587.775C897.674,-584.317 889.391,-580.33 882,-576 866.329,-566.819 850.219,-554.606 837.314,-544.021"/>
<polygon fill="#704070" stroke="#704070" points="839.251,-541.078 829.334,-537.348 834.761,-546.448 839.251,-541.078"/>
</g>
<!-- 46.20.250.241 -->
<g id="node8" class="node"><title>46.20.250.241</title>
<ellipse fill="#60baba" stroke="black" cx="941" cy="-746" rx="61.6163" ry="18"/>
<text text-anchor="middle" x="941" y="-742.3" font-family="Times,serif" font-size="14.00">46.20.250.241</text>
</g>
<!-- 46.20.250.241&#45;&gt;46.20.254.49 -->
<g id="edge4" class="edge"><title>46.20.250.241&#45;&gt;46.20.254.49</title>
<path fill="none" stroke="#a07070" d="M917.957,-729.116C914.075,-720.703 913.05,-710.164 914.879,-700.628"/>
<polygon fill="#a07070" stroke="#a07070" points="918.303,-701.411 917.986,-690.821 911.629,-699.297 918.303,-701.411"/>
</g>
<!-- 46.20.250.241&#45;&gt;46.20.254.49 -->
<g id="edge18" class="edge"><title>46.20.250.241&#45;&gt;46.20.254.49</title>
<path fill="none" stroke="#a04040" d="M929.244,-728.055C927.565,-720.145 927.098,-710.54 927.844,-701.688"/>
<polygon fill="#a04040" stroke="#a04040" points="931.308,-702.187 929.277,-691.789 924.381,-701.185 931.308,-702.187"/>
</g>
<!-- 46.20.250.241&#45;&gt;46.20.254.49 -->
<g id="edge29" class="edge"><title>46.20.250.241&#45;&gt;46.20.254.49</title>
<path fill="none" stroke="#a02020" d="M941,-727.697C941,-719.983 941,-710.712 941,-702.112"/>
<polygon fill="#a02020" stroke="#a02020" points="944.5,-702.104 941,-692.104 937.5,-702.104 944.5,-702.104"/>
</g>
<!-- 46.20.250.241&#45;&gt;46.20.254.49 -->
<g id="edge41" class="edge"><title>46.20.250.241&#45;&gt;46.20.254.49</title>
<path fill="none" stroke="#7070a0" d="M952.756,-728.055C954.435,-720.145 954.902,-710.54 954.156,-701.688"/>
<polygon fill="#7070a0" stroke="#7070a0" points="957.619,-701.185 952.723,-691.789 950.692,-702.187 957.619,-701.185"/>
</g>
<!-- 46.20.250.241&#45;&gt;46.20.254.49 -->
<g id="edge50" class="edge"><title>46.20.250.241&#45;&gt;46.20.254.49</title>
<path fill="none" stroke="#704070" d="M964.043,-729.116C967.925,-720.703 968.95,-710.164 967.121,-700.628"/>
<polygon fill="#704070" stroke="#704070" points="970.371,-699.297 964.014,-690.821 963.697,-701.411 970.371,-699.297"/>
</g>
<!-- 192.65.185.130 -->
<g id="node11" class="node"><title>192.65.185.130</title>
<ellipse fill="#60ffff" stroke="black" cx="429" cy="-520" rx="65.9423" ry="18"/>
<text text-anchor="middle" x="429" y="-516.3" font-family="Times,serif" font-size="14.00">192.65.185.130</text>
</g>
<!-- 46.20.251.26&#45;&gt;192.65.185.130 -->
<g id="edge31" class="edge"><title>46.20.251.26&#45;&gt;192.65.185.130</title>
<path fill="none" stroke="#a02020" d="M760.65,-591.19C692.445,-576.756 564.986,-549.78 489.492,-533.803"/>
<polygon fill="#a02020" stroke="#a02020" points="490.156,-530.366 479.648,-531.719 488.706,-537.214 490.156,-530.366"/>
</g>
<!-- 194.42.48.50 -->
<g id="node13" class="node"><title>194.42.48.50</title>
<ellipse fill="#86ba86" stroke="black" cx="677" cy="-430" rx="57.2688" ry="18"/>
<text text-anchor="middle" x="677" y="-426.3" font-family="Times,serif" font-size="14.00">194.42.48.50</text>
</g>
<!-- 46.20.254.106&#45;&gt;194.42.48.50 -->
<g id="edge7" class="edge"><title>46.20.254.106&#45;&gt;194.42.48.50</title>
<path fill="none" stroke="#a07070" d="M778.144,-504.672C767.003,-499.333 754.681,-492.884 744,-486 729.369,-476.57 714.282,-464.434 702.138,-453.962"/>
<polygon fill="#a07070" stroke="#a07070" points="704.442,-451.328 694.616,-447.366 699.827,-456.591 704.442,-451.328"/>
</g>
<!-- 194.42.48.58 -->
<g id="node14" class="node"><title>194.42.48.58</title>
<ellipse fill="#86ba86" stroke="black" cx="811" cy="-430" rx="57.2688" ry="18"/>
<text text-anchor="middle" x="811" y="-426.3" font-family="Times,serif" font-size="14.00">194.42.48.58</text>
</g>
<!-- 46.20.254.106&#45;&gt;194.42.48.58 -->
<g id="edge21" class="edge"><title>46.20.254.106&#45;&gt;194.42.48.58</title>
<path fill="none" stroke="#a04040" d="M805.542,-502.033C804.177,-489.695 803.893,-472.727 804.693,-458.469"/>
<polygon fill="#a04040" stroke="#a04040" points="808.204,-458.463 805.515,-448.215 801.227,-457.904 808.204,-458.463"/>
</g>
<!-- 46.20.254.106&#45;&gt;194.42.48.58 -->
<g id="edge53" class="edge"><title>46.20.254.106&#45;&gt;194.42.48.58</title>
<path fill="none" stroke="#704070" d="M816.458,-502.033C817.823,-489.695 818.107,-472.727 817.307,-458.469"/>
<polygon fill="#704070" stroke="#704070" points="820.773,-457.904 816.485,-448.215 813.796,-458.463 820.773,-457.904"/>
</g>
<!-- 130.59.37.182 -->
<g id="node25" class="node"><title>130.59.37.182</title>
<ellipse fill="#baba60" stroke="black" cx="199" cy="-430" rx="61.6163" ry="18"/>
<text text-anchor="middle" x="199" y="-426.3" font-family="Times,serif" font-size="14.00">130.59.37.182</text>
</g>
<!-- 192.65.185.130&#45;&gt;130.59.37.182 -->
<g id="edge32" class="edge"><title>192.65.185.130&#45;&gt;130.59.37.182</title>
<path fill="none" stroke="#a02020" d="M392.301,-504.959C352.094,-489.575 287.569,-464.887 244.255,-448.315"/>
<polygon fill="#a02020" stroke="#a02020" points="245.401,-445.006 234.811,-444.702 242.9,-451.544 245.401,-445.006"/>
</g>
<!-- 88.221.14.137 -->
<g id="node12" class="node"><title>88.221.14.137</title>
<polygon fill="green" stroke="black" points="1078.5,-237 1078.5,-273 1241.5,-273 1241.5,-237 1078.5,-237"/>
<text text-anchor="middle" x="1126" y="-251.3" font-family="Times,serif" font-size="14.00">88.221.14.137</text>
<polyline fill="none" stroke="black" points="1173.5,-237 1173.5,-273 "/>
<text text-anchor="middle" x="1207.5" y="-251.3" font-family="Times,serif" font-size="14.00">www SA</text>
</g>
<!-- 207.46.45.241 -->
<g id="node15" class="node"><title>207.46.45.241</title>
<ellipse fill="#86ffba" stroke="black" cx="347" cy="-339" rx="61.6163" ry="18"/>
<text text-anchor="middle" x="347" y="-335.3" font-family="Times,serif" font-size="14.00">207.46.45.241</text>
</g>
<!-- 194.42.48.50&#45;&gt;207.46.45.241 -->
<g id="edge8" class="edge"><title>194.42.48.50&#45;&gt;207.46.45.241</title>
<path fill="none" stroke="#a07070" d="M621.32,-425.477C556.19,-420.74 452.72,-411.123 417,-396 399.435,-388.563 382.644,-375.412 369.912,-363.722"/>
<polygon fill="#a07070" stroke="#a07070" points="372.193,-361.06 362.538,-356.696 367.364,-366.128 372.193,-361.06"/>
</g>
<!-- 194.42.48.58&#45;&gt;72.14.232.208 -->
<g id="edge22" class="edge"><title>194.42.48.58&#45;&gt;72.14.232.208</title>
<path fill="none" stroke="#a04040" d="M805.542,-411.84C804.154,-399.158 803.884,-381.64 804.733,-367.077"/>
<polygon fill="#a04040" stroke="#a04040" points="808.221,-367.359 805.548,-357.107 801.244,-366.789 808.221,-367.359"/>
</g>
<!-- 194.42.48.58&#45;&gt;72.14.232.208 -->
<g id="edge54" class="edge"><title>194.42.48.58&#45;&gt;72.14.232.208</title>
<path fill="none" stroke="#704070" d="M816.458,-411.84C817.846,-399.158 818.116,-381.64 817.267,-367.077"/>
<polygon fill="#704070" stroke="#704070" points="820.756,-366.789 816.452,-357.107 813.779,-367.359 820.756,-366.789"/>
</g>
<!-- 207.46.42.156 -->
<g id="node19" class="node"><title>207.46.42.156</title>
<ellipse fill="#86ffba" stroke="black" cx="389" cy="-255" rx="61.6163" ry="18"/>
<text text-anchor="middle" x="389" y="-251.3" font-family="Times,serif" font-size="14.00">207.46.42.156</text>
</g>
<!-- 207.46.45.241&#45;&gt;207.46.42.156 -->
<g id="edge9" class="edge"><title>207.46.45.241&#45;&gt;207.46.42.156</title>
<path fill="none" stroke="#a07070" d="M355.702,-321.01C361.446,-309.795 369.086,-294.88 375.598,-282.165"/>
<polygon fill="#a07070" stroke="#a07070" points="378.865,-283.465 380.309,-272.969 372.635,-280.274 378.865,-283.465"/>
</g>
<!-- 207.46.34.195 -->
<g id="node16" class="node"><title>207.46.34.195</title>
<ellipse fill="#86ffba" stroke="black" cx="570" cy="-255" rx="61.6163" ry="18"/>
<text text-anchor="middle" x="570" y="-251.3" font-family="Times,serif" font-size="14.00">207.46.34.195</text>
</g>
<!-- unk1 -->
<g id="node31" class="node"><title>unk1</title>
<ellipse fill="none" stroke="black" cx="625" cy="-181" rx="28.3955" ry="18"/>
<text text-anchor="middle" x="625" y="-177.3" font-family="Times,serif" font-size="14.00">unk1</text>
</g>
<!-- 207.46.34.195&#45;&gt;unk1 -->
<g id="edge13" class="edge"><title>207.46.34.195&#45;&gt;unk1</title>
<path fill="none" stroke="#a07070" d="M582.756,-237.301C589.896,-227.954 598.919,-216.142 606.791,-205.837"/>
<polygon fill="#a07070" stroke="#a07070" points="609.777,-207.694 613.066,-197.623 604.214,-203.445 609.777,-207.694"/>
</g>
<!-- 207.46.33.228 -->
<g id="node17" class="node"><title>207.46.33.228</title>
<ellipse fill="#86ffba" stroke="black" cx="488" cy="-339" rx="61.6163" ry="18"/>
<text text-anchor="middle" x="488" y="-335.3" font-family="Times,serif" font-size="14.00">207.46.33.228</text>
</g>
<!-- 207.46.33.228&#45;&gt;207.46.34.195 -->
<g id="edge12" class="edge"><title>207.46.33.228&#45;&gt;207.46.34.195</title>
<path fill="none" stroke="#a07070" d="M504.594,-321.406C516.486,-309.514 532.686,-293.314 545.988,-280.012"/>
<polygon fill="#a07070" stroke="#a07070" points="548.835,-282.115 553.431,-272.569 543.885,-277.165 548.835,-282.115"/>
</g>
<!-- 65.55.75.215 -->
<g id="node18" class="node"><title>65.55.75.215</title>
<polygon fill="green" stroke="black" points="567.5,-321 567.5,-357 724.5,-357 724.5,-321 567.5,-321"/>
<text text-anchor="middle" x="612" y="-335.3" font-family="Times,serif" font-size="14.00">65.55.75.215</text>
<polyline fill="none" stroke="black" points="656.5,-321 656.5,-357 "/>
<text text-anchor="middle" x="690.5" y="-335.3" font-family="Times,serif" font-size="14.00">www SA</text>
</g>
<!-- unk0 -->
<g id="node30" class="node"><title>unk0</title>
<ellipse fill="none" stroke="black" cx="353" cy="-181" rx="28.3955" ry="18"/>
<text text-anchor="middle" x="353" y="-177.3" font-family="Times,serif" font-size="14.00">unk0</text>
</g>
<!-- 207.46.42.156&#45;&gt;unk0 -->
<g id="edge10" class="edge"><title>207.46.42.156&#45;&gt;unk0</title>
<path fill="none" stroke="#a07070" d="M380.469,-236.937C376.102,-228.204 370.697,-217.393 365.839,-207.678"/>
<polygon fill="#a07070" stroke="#a07070" points="368.825,-205.824 361.222,-198.445 362.564,-208.954 368.825,-205.824"/>
</g>
<!-- 62.220.144.42 -->
<g id="node20" class="node"><title>62.220.144.42</title>
<ellipse fill="#8660ff" stroke="black" cx="941" cy="-836" rx="61.6163" ry="18"/>
<text text-anchor="middle" x="941" y="-832.3" font-family="Times,serif" font-size="14.00">62.220.144.42</text>
</g>
<!-- 62.220.144.42&#45;&gt;46.20.250.241 -->
<g id="edge3" class="edge"><title>62.220.144.42&#45;&gt;46.20.250.241</title>
<path fill="none" stroke="#a07070" d="M919.544,-818.859C913.525,-805.959 912.407,-787.629 916.19,-772.712"/>
<polygon fill="#a07070" stroke="#a07070" points="919.576,-773.633 919.592,-763.038 912.972,-771.311 919.576,-773.633"/>
</g>
<!-- 62.220.144.42&#45;&gt;46.20.250.241 -->
<g id="edge17" class="edge"><title>62.220.144.42&#45;&gt;46.20.250.241</title>
<path fill="none" stroke="#a04040" d="M930.084,-818.033C927.335,-805.615 926.78,-788.508 928.416,-774.193"/>
<polygon fill="#a04040" stroke="#a04040" points="931.937,-774.349 930.096,-763.915 925.029,-773.22 931.937,-774.349"/>
</g>
<!-- 62.220.144.42&#45;&gt;46.20.250.241 -->
<g id="edge28" class="edge"><title>62.220.144.42&#45;&gt;46.20.250.241</title>
<path fill="none" stroke="#a02020" d="M941,-817.614C941,-805.24 941,-788.369 941,-774.22"/>
<polygon fill="#a02020" stroke="#a02020" points="944.5,-774.05 941,-764.05 937.5,-774.05 944.5,-774.05"/>
</g>
<!-- 62.220.144.42&#45;&gt;46.20.250.241 -->
<g id="edge40" class="edge"><title>62.220.144.42&#45;&gt;46.20.250.241</title>
<path fill="none" stroke="#7070a0" d="M951.916,-818.033C954.665,-805.615 955.22,-788.508 953.584,-774.193"/>
<polygon fill="#7070a0" stroke="#7070a0" points="956.971,-773.22 951.904,-763.915 950.063,-774.349 956.971,-773.22"/>
</g>
<!-- 62.220.144.42&#45;&gt;46.20.250.241 -->
<g id="edge49" class="edge"><title>62.220.144.42&#45;&gt;46.20.250.241</title>
<path fill="none" stroke="#704070" d="M962.456,-818.859C968.475,-805.959 969.593,-787.629 965.81,-772.712"/>
<polygon fill="#704070" stroke="#704070" points="969.028,-771.311 962.408,-763.038 962.424,-773.633 969.028,-771.311"/>
</g>
<!-- 62.220.144.146 -->
<g id="node21" class="node"><title>62.220.144.146</title>
<ellipse fill="#8660ff" stroke="black" cx="941" cy="-908" rx="65.9423" ry="18"/>
<text text-anchor="middle" x="941" y="-904.3" font-family="Times,serif" font-size="14.00">62.220.144.146</text>
</g>
<!-- 62.220.144.146&#45;&gt;62.220.144.42 -->
<g id="edge2" class="edge"><title>62.220.144.146&#45;&gt;62.220.144.42</title>
<path fill="none" stroke="#a07070" d="M917.957,-891.116C914.075,-882.703 913.05,-872.164 914.879,-862.628"/>
<polygon fill="#a07070" stroke="#a07070" points="918.303,-863.411 917.986,-852.821 911.629,-861.297 918.303,-863.411"/>
</g>
<!-- 62.220.144.146&#45;&gt;62.220.144.42 -->
<g id="edge16" class="edge"><title>62.220.144.146&#45;&gt;62.220.144.42</title>
<path fill="none" stroke="#a04040" d="M929.244,-890.055C927.565,-882.145 927.098,-872.54 927.844,-863.688"/>
<polygon fill="#a04040" stroke="#a04040" points="931.308,-864.187 929.277,-853.789 924.381,-863.185 931.308,-864.187"/>
</g>
<!-- 62.220.144.146&#45;&gt;62.220.144.42 -->
<g id="edge27" class="edge"><title>62.220.144.146&#45;&gt;62.220.144.42</title>
<path fill="none" stroke="#a02020" d="M941,-889.697C941,-881.983 941,-872.712 941,-864.112"/>
<polygon fill="#a02020" stroke="#a02020" points="944.5,-864.104 941,-854.104 937.5,-864.104 944.5,-864.104"/>
</g>
<!-- 62.220.144.146&#45;&gt;62.220.144.42 -->
<g id="edge39" class="edge"><title>62.220.144.146&#45;&gt;62.220.144.42</title>
<path fill="none" stroke="#7070a0" d="M952.756,-890.055C954.435,-882.145 954.902,-872.54 954.156,-863.688"/>
<polygon fill="#7070a0" stroke="#7070a0" points="957.619,-863.185 952.723,-853.789 950.692,-864.187 957.619,-863.185"/>
</g>
<!-- 62.220.144.146&#45;&gt;62.220.144.42 -->
<g id="edge48" class="edge"><title>62.220.144.146&#45;&gt;62.220.144.42</title>
<path fill="none" stroke="#704070" d="M964.043,-891.116C967.925,-882.703 968.95,-872.164 967.121,-862.628"/>
<polygon fill="#704070" stroke="#704070" points="970.371,-861.297 964.014,-852.821 963.697,-863.411 970.371,-861.297"/>
</g>
<!-- 62.220.135.254 -->
<g id="node22" class="node"><title>62.220.135.254</title>
<ellipse fill="#8660ff" stroke="black" cx="941" cy="-980" rx="65.9423" ry="18"/>
<text text-anchor="middle" x="941" y="-976.3" font-family="Times,serif" font-size="14.00">62.220.135.254</text>
</g>
<!-- 62.220.135.254&#45;&gt;62.220.144.146 -->
<g id="edge1" class="edge"><title>62.220.135.254&#45;&gt;62.220.144.146</title>
<path fill="none" stroke="#a07070" d="M917.957,-963.116C914.13,-954.821 913.079,-944.461 914.804,-935.032"/>
<polygon fill="#a07070" stroke="#a07070" points="918.2,-935.893 917.765,-925.307 911.504,-933.854 918.2,-935.893"/>
</g>
<!-- 62.220.135.254&#45;&gt;62.220.144.146 -->
<g id="edge15" class="edge"><title>62.220.135.254&#45;&gt;62.220.144.146</title>
<path fill="none" stroke="#a04040" d="M929.244,-962.055C927.565,-954.145 927.098,-944.54 927.844,-935.688"/>
<polygon fill="#a04040" stroke="#a04040" points="931.308,-936.187 929.277,-925.789 924.381,-935.185 931.308,-936.187"/>
</g>
<!-- 62.220.135.254&#45;&gt;62.220.144.146 -->
<g id="edge26" class="edge"><title>62.220.135.254&#45;&gt;62.220.144.146</title>
<path fill="none" stroke="#a02020" d="M941,-961.697C941,-953.983 941,-944.712 941,-936.112"/>
<polygon fill="#a02020" stroke="#a02020" points="944.5,-936.104 941,-926.104 937.5,-936.104 944.5,-936.104"/>
</g>
<!-- 62.220.135.254&#45;&gt;62.220.144.146 -->
<g id="edge38" class="edge"><title>62.220.135.254&#45;&gt;62.220.144.146</title>
<path fill="none" stroke="#7070a0" d="M952.756,-962.055C954.435,-954.145 954.902,-944.54 954.156,-935.688"/>
<polygon fill="#7070a0" stroke="#7070a0" points="957.619,-935.185 952.723,-925.789 950.692,-936.187 957.619,-935.185"/>
</g>
<!-- 62.220.135.254&#45;&gt;62.220.144.146 -->
<g id="edge47" class="edge"><title>62.220.135.254&#45;&gt;62.220.144.146</title>
<path fill="none" stroke="#704070" d="M964.043,-963.116C967.87,-954.821 968.921,-944.461 967.196,-935.032"/>
<polygon fill="#704070" stroke="#704070" points="970.496,-933.854 964.235,-925.307 963.8,-935.893 970.496,-933.854"/>
</g>
<!-- 192.33.209.34 -->
<g id="node23" class="node"><title>192.33.209.34</title>
<ellipse fill="#baba60" stroke="black" cx="199" cy="-255" rx="61.6163" ry="18"/>
<text text-anchor="middle" x="199" y="-251.3" font-family="Times,serif" font-size="14.00">192.33.209.34</text>
</g>
<!-- 128.178.200.3 -->
<g id="node26" class="node"><title>128.178.200.3</title>
<ellipse fill="#baba60" stroke="black" cx="199" cy="-181" rx="61.6163" ry="18"/>
<text text-anchor="middle" x="199" y="-177.3" font-family="Times,serif" font-size="14.00">128.178.200.3</text>
</g>
<!-- 192.33.209.34&#45;&gt;128.178.200.3 -->
<g id="edge35" class="edge"><title>192.33.209.34&#45;&gt;128.178.200.3</title>
<path fill="none" stroke="#a02020" d="M199,-236.937C199,-228.807 199,-218.876 199,-209.705"/>
<polygon fill="#a02020" stroke="#a02020" points="202.5,-209.441 199,-199.441 195.5,-209.441 202.5,-209.441"/>
</g>
<!-- 130.59.37.186 -->
<g id="node24" class="node"><title>130.59.37.186</title>
<ellipse fill="#baba60" stroke="black" cx="199" cy="-339" rx="61.6163" ry="18"/>
<text text-anchor="middle" x="199" y="-335.3" font-family="Times,serif" font-size="14.00">130.59.37.186</text>
</g>
<!-- 130.59.37.186&#45;&gt;192.33.209.34 -->
<g id="edge34" class="edge"><title>130.59.37.186&#45;&gt;192.33.209.34</title>
<path fill="none" stroke="#a02020" d="M199,-320.61C199,-309.774 199,-295.601 199,-283.291"/>
<polygon fill="#a02020" stroke="#a02020" points="202.5,-283.084 199,-273.084 195.5,-283.084 202.5,-283.084"/>
</g>
<!-- 130.59.37.182&#45;&gt;130.59.37.186 -->
<g id="edge33" class="edge"><title>130.59.37.182&#45;&gt;130.59.37.186</title>
<path fill="none" stroke="#a02020" d="M199,-411.84C199,-399.281 199,-381.979 199,-367.502"/>
<polygon fill="#a02020" stroke="#a02020" points="202.5,-367.107 199,-357.107 195.5,-367.107 202.5,-367.107"/>
</g>
<!-- 128.178.100.5 -->
<g id="node27" class="node"><title>128.178.100.5</title>
<ellipse fill="#baba60" stroke="black" cx="199" cy="-108" rx="61.6163" ry="18"/>
<text text-anchor="middle" x="199" y="-104.3" font-family="Times,serif" font-size="14.00">128.178.100.5</text>
</g>
<!-- 128.178.200.3&#45;&gt;128.178.100.5 -->
<g id="edge36" class="edge"><title>128.178.200.3&#45;&gt;128.178.100.5</title>
<path fill="none" stroke="#a02020" d="M199,-162.813C199,-154.789 199,-145.047 199,-136.069"/>
<polygon fill="#a02020" stroke="#a02020" points="202.5,-136.029 199,-126.029 195.5,-136.029 202.5,-136.029"/>
</g>
<!-- 128.178.50.12 -->
<g id="node28" class="node"><title>128.178.50.12</title>
<polygon fill="green" stroke="black" points="69.5,-17 69.5,-53 232.5,-53 232.5,-17 69.5,-17"/>
<text text-anchor="middle" x="117" y="-31.3" font-family="Times,serif" font-size="14.00">128.178.50.12</text>
<polyline fill="none" stroke="black" points="164.5,-17 164.5,-53 "/>
<text text-anchor="middle" x="198.5" y="-31.3" font-family="Times,serif" font-size="14.00">www SA</text>
</g>
<!-- 128.178.100.5&#45;&gt;128.178.50.12 -->
<g id="edge37" class="edge"><title>128.178.100.5&#45;&gt;128.178.50.12:T80</title>
<path fill="none" stroke="#a02020" d="M199,-89.8142C199,-82.2783 199,-73.1015 199,-64.0584"/>
<polygon fill="#a02020" stroke="#a02020" points="202.5,-64 199,-54 195.5,-64 202.5,-64"/>
</g>
<!-- unk3 -->
<g id="node33" class="node"><title>unk3</title>
<ellipse fill="none" stroke="black" cx="1154" cy="-339" rx="28.3955" ry="18"/>
<text text-anchor="middle" x="1154" y="-335.3" font-family="Times,serif" font-size="14.00">unk3</text>
</g>
<!-- 77.95.71.9&#45;&gt;unk3 -->
<g id="edge45" class="edge"><title>77.95.71.9&#45;&gt;unk3</title>
<path fill="none" stroke="#7070a0" d="M1063.41,-413.293C1081.65,-398.535 1109.05,-376.371 1128.93,-360.281"/>
<polygon fill="#7070a0" stroke="#7070a0" points="1131.37,-362.808 1136.95,-353.797 1126.97,-357.366 1131.37,-362.808"/>
</g>
<!-- unk0&#45;&gt;207.46.33.228 -->
<g id="edge11" class="edge"><title>unk0&#45;&gt;207.46.33.228</title>
<path fill="none" stroke="#a07070" d="M337.851,-196.673C330.312,-205.048 321.976,-216.209 318,-228 306.072,-263.376 292.687,-284.559 318,-312 325.483,-320.112 406.113,-318.193 417,-320 423.092,-321.011 429.428,-322.286 435.695,-323.689"/>
<polygon fill="#a07070" stroke="#a07070" points="434.908,-327.099 445.444,-325.979 436.509,-320.285 434.908,-327.099"/>
</g>
<!-- unk1&#45;&gt;65.55.75.215 -->
<g id="edge14" class="edge"><title>unk1&#45;&gt;65.55.75.215:T80</title>
<path fill="none" stroke="#a07070" d="M638.039,-197.409C655.921,-220.052 686.329,-264.545 690.517,-309.742"/>
<polygon fill="#a07070" stroke="#a07070" points="687.033,-310.176 691,-320 694.025,-309.846 687.033,-310.176"/>
</g>
<!-- unk2&#45;&gt;173.194.40.24 -->
<g id="edge25" class="edge"><title>unk2&#45;&gt;173.194.40.24:T80</title>
<path fill="none" stroke="#a04040" d="M1083.77,-196.554C1062.34,-218.57 1025.34,-262.8 1020.52,-309.91"/>
<polygon fill="#a04040" stroke="#a04040" points="1017.02,-309.832 1020,-320 1024.01,-310.195 1017.02,-309.832"/>
</g>
<!-- unk3&#45;&gt;88.221.14.137 -->
<g id="edge46" class="edge"><title>unk3&#45;&gt;88.221.14.137:T80</title>
<path fill="none" stroke="#7070a0" d="M1173.5,-325.835C1186.55,-316.285 1202.14,-301.68 1206.69,-284.076"/>
<polygon fill="#7070a0" stroke="#7070a0" points="1210.18,-284.367 1208,-274 1203.24,-283.466 1210.18,-284.367"/>
</g>
</g>
</svg>
