<?xml version="1.0" encoding="UTF-8" standalone="no"?>
<!DOCTYPE svg PUBLIC "-//W3C//DTD SVG 1.1//EN"
 "http://www.w3.org/Graphics/SVG/1.1/DTD/svg11.dtd">
<!-- Generated by graphviz version 2.30.1 (20130519.1752)
 -->
<!-- Title: trace Pages: 1 -->
<svg width="221pt" height="882pt"
 viewBox="0.00 0.00 221.00 882.00" xmlns="http://www.w3.org/2000/svg" xmlns:xlink="http://www.w3.org/1999/xlink">
<g id="graph0" class="graph" transform="scale(1 1) rotate(0) translate(4 878)">
<title>trace</title>
<polygon fill="white" stroke="white" points="-4,5 -4,-878 218,-878 218,5 -4,5"/>
<g id="clust1" class="cluster"><title>cluster_15169</title>
<polygon fill="none" stroke="#608686" points="8,-8 8,-236 188,-236 188,-8 8,-8"/>
<text text-anchor="middle" x="98" y="-224" font-family="Times,serif" font-size="10.00">15169</text>
<text text-anchor="middle" x="98" y="-213" font-family="Times,serif" font-size="10.00">[GOOGLE &#45; Google Inc.]</text>
</g>
<g id="clust2" class="cluster"><title>cluster_25091</title>
<polygon fill="none" stroke="#60baba" points="44,-334 44,-632 184,-632 184,-334 44,-334"/>
<text text-anchor="middle" x="114" y="-620" font-family="Times,serif" font-size="10.00">25091</text>
<text text-anchor="middle" x="114" y="-609" font-family="Times,serif" font-size="10.00">[IP&#45;MAX IP&#45;Max SA]</text>
</g>
<g id="clust3" class="cluster"><title>cluster_6893</title>
<polygon fill="none" stroke="#60ffff" points="8,-640 8,-866 205,-866 205,-640 8,-640"/>
<text text-anchor="middle" x="106.5" y="-854" font-family="Times,serif" font-size="10.00">6893</text>
<text text-anchor="middle" x="106.5" y="-843" font-family="Times,serif" font-size="10.00">[SAITIS&#45;NETWORK Saitis Network, N.Desir]</text>
</g>
<g id="clust4" class="cluster"><title>cluster_8235</title>
<polygon fill="none" stroke="#868660" points="48,-244 48,-326 180,-326 180,-244 48,-244"/>
<text text-anchor="middle" x="114" y="-314" font-family="Times,serif" font-size="10.00">8235</text>
<text text-anchor="middle" x="114" y="-303" font-family="Times,serif" font-size="10.00">[TIX&#45;ZH .]</text>
</g>
<!-- 72.14.232.208 -->
<g id="node1" class="node"><title>72.14.232.208</title>
<ellipse fill="#608686" stroke="black" cx="114" cy="-180" rx="61.6163" ry="18"/>
<text text-anchor="middle" x="114" y="-176.3" font-family="Times,serif" font-size="14.00">72.14.232.208</text>
</g>
<!-- 64.233.174.245 -->
<g id="node2" class="node"><title>64.233.174.245</title>
<ellipse fill="#608686" stroke="black" cx="114" cy="-108" rx="65.9423" ry="18"/>
<text text-anchor="middle" x="114" y="-104.3" font-family="Times,serif" font-size="14.00">64.233.174.245</text>
</g>
<!-- 72.14.232.208&#45;&gt;64.233.174.245 -->
<g id="edge9" class="edge"><title>72.14.232.208&#45;&gt;64.233.174.245</title>
<path fill="none" stroke="#a07070" d="M114,-161.697C114,-153.983 114,-144.712 114,-136.112"/>
<polygon fill="#a07070" stroke="#a07070" points="117.5,-136.104 114,-126.104 110.5,-136.104 117.5,-136.104"/>
</g>
<!-- 173.194.40.23 -->
<g id="node3" class="node"><title>173.194.40.23</title>
<polygon fill="green" stroke="black" points="16.5,-17 16.5,-53 179.5,-53 179.5,-17 16.5,-17"/>
<text text-anchor="middle" x="64" y="-31.3" font-family="Times,serif" font-size="14.00">173.194.40.23</text>
<polyline fill="none" stroke="black" points="111.5,-17 111.5,-53 "/>
<text text-anchor="middle" x="145.5" y="-31.3" font-family="Times,serif" font-size="14.00">www SA</text>
</g>
<!-- 64.233.174.245&#45;&gt;173.194.40.23 -->
<g id="edge10" class="edge"><title>64.233.174.245&#45;&gt;173.194.40.23:T80</title>
<path fill="none" stroke="#a07070" d="M130.375,-90.3562C136.28,-83.0344 142.116,-73.8629 144.666,-64.0213"/>
<polygon fill="#a07070" stroke="#a07070" points="148.15,-64.3745 146,-54 141.211,-63.4506 148.15,-64.3745"/>
</g>
<!-- 46.20.251.17 -->
<g id="node4" class="node"><title>46.20.251.17</title>
<ellipse fill="#60baba" stroke="black" cx="114" cy="-432" rx="57.2688" ry="18"/>
<text text-anchor="middle" x="114" y="-428.3" font-family="Times,serif" font-size="14.00">46.20.251.17</text>
</g>
<!-- 46.20.254.106 -->
<g id="node7" class="node"><title>46.20.254.106</title>
<ellipse fill="#60baba" stroke="black" cx="114" cy="-360" rx="61.6163" ry="18"/>
<text text-anchor="middle" x="114" y="-356.3" font-family="Times,serif" font-size="14.00">46.20.254.106</text>
</g>
<!-- 46.20.251.17&#45;&gt;46.20.254.106 -->
<g id="edge6" class="edge"><title>46.20.251.17&#45;&gt;46.20.254.106</title>
<path fill="none" stroke="#a07070" d="M114,-413.697C114,-405.983 114,-396.712 114,-388.112"/>
<polygon fill="#a07070" stroke="#a07070" points="117.5,-388.104 114,-378.104 110.5,-388.104 117.5,-388.104"/>
</g>
<!-- 46.20.254.49 -->
<g id="node5" class="node"><title>46.20.254.49</title>
<ellipse fill="#60baba" stroke="black" cx="114" cy="-504" rx="57.2688" ry="18"/>
<text text-anchor="middle" x="114" y="-500.3" font-family="Times,serif" font-size="14.00">46.20.254.49</text>
</g>
<!-- 46.20.254.49&#45;&gt;46.20.251.17 -->
<g id="edge5" class="edge"><title>46.20.254.49&#45;&gt;46.20.251.17</title>
<path fill="none" stroke="#a07070" d="M114,-485.697C114,-477.983 114,-468.712 114,-460.112"/>
<polygon fill="#a07070" stroke="#a07070" points="117.5,-460.104 114,-450.104 110.5,-460.104 117.5,-460.104"/>
</g>
<!-- 46.20.250.241 -->
<g id="node6" class="node"><title>46.20.250.241</title>
<ellipse fill="#60baba" stroke="black" cx="114" cy="-576" rx="61.6163" ry="18"/>
<text text-anchor="middle" x="114" y="-572.3" font-family="Times,serif" font-size="14.00">46.20.250.241</text>
</g>
<!-- 46.20.250.241&#45;&gt;46.20.254.49 -->
<g id="edge4" class="edge"><title>46.20.250.241&#45;&gt;46.20.254.49</title>
<path fill="none" stroke="#a07070" d="M114,-557.697C114,-549.983 114,-540.712 114,-532.112"/>
<polygon fill="#a07070" stroke="#a07070" points="117.5,-532.104 114,-522.104 110.5,-532.104 117.5,-532.104"/>
</g>
<!-- 194.42.48.58 -->
<g id="node11" class="node"><title>194.42.48.58</title>
<ellipse fill="#868660" stroke="black" cx="114" cy="-270" rx="57.2688" ry="18"/>
<text text-anchor="middle" x="114" y="-266.3" font-family="Times,serif" font-size="14.00">194.42.48.58</text>
</g>
<!-- 46.20.254.106&#45;&gt;194.42.48.58 -->
<g id="edge7" class="edge"><title>46.20.254.106&#45;&gt;194.42.48.58</title>
<path fill="none" stroke="#a07070" d="M114,-341.614C114,-329.24 114,-312.369 114,-298.22"/>
<polygon fill="#a07070" stroke="#a07070" points="117.5,-298.05 114,-288.05 110.5,-298.05 117.5,-298.05"/>
</g>
<!-- 62.220.144.42 -->
<g id="node8" class="node"><title>62.220.144.42</title>
<ellipse fill="#60ffff" stroke="black" cx="114" cy="-666" rx="61.6163" ry="18"/>
<text text-anchor="middle" x="114" y="-662.3" font-family="Times,serif" font-size="14.00">62.220.144.42</text>
</g>
<!-- 62.220.144.42&#45;&gt;46.20.250.241 -->
<g id="edge3" class="edge"><title>62.220.144.42&#45;&gt;46.20.250.241</title>
<path fill="none" stroke="#a07070" d="M114,-647.614C114,-635.24 114,-618.369 114,-604.22"/>
<polygon fill="#a07070" stroke="#a07070" points="117.5,-604.05 114,-594.05 110.5,-604.05 117.5,-604.05"/>
</g>
<!-- 62.220.144.146 -->
<g id="node9" class="node"><title>62.220.144.146</title>
<ellipse fill="#60ffff" stroke="black" cx="114" cy="-738" rx="65.9423" ry="18"/>
<text text-anchor="middle" x="114" y="-734.3" font-family="Times,serif" font-size="14.00">62.220.144.146</text>
</g>
<!-- 62.220.144.146&#45;&gt;62.220.144.42 -->
<g id="edge2" class="edge"><title>62.220.144.146&#45;&gt;62.220.144.42</title>
<path fill="none" stroke="#a07070" d="M114,-719.697C114,-711.983 114,-702.712 114,-694.112"/>
<polygon fill="#a07070" stroke="#a07070" points="117.5,-694.104 114,-684.104 110.5,-694.104 117.5,-694.104"/>
</g>
<!-- 62.220.135.254 -->
<g id="node10" class="node"><title>62.220.135.254</title>
<ellipse fill="#60ffff" stroke="black" cx="114" cy="-810" rx="65.9423" ry="18"/>
<text text-anchor="middle" x="114" y="-806.3" font-family="Times,serif" font-size="14.00">62.220.135.254</text>
</g>
<!-- 62.220.135.254&#45;&gt;62.220.144.146 -->
<g id="edge1" class="edge"><title>62.220.135.254&#45;&gt;62.220.144.146</title>
<path fill="none" stroke="#a07070" d="M114,-791.697C114,-783.983 114,-774.712 114,-766.112"/>
<polygon fill="#a07070" stroke="#a07070" points="117.5,-766.104 114,-756.104 110.5,-766.104 117.5,-766.104"/>
</g>
<!-- 194.42.48.58&#45;&gt;72.14.232.208 -->
<g id="edge8" class="edge"><title>194.42.48.58&#45;&gt;72.14.232.208</title>
<path fill="none" stroke="#a07070" d="M114,-251.614C114,-239.24 114,-222.369 114,-208.22"/>
<polygon fill="#a07070" stroke="#a07070" points="117.5,-208.05 114,-198.05 110.5,-208.05 117.5,-208.05"/>
</g>
</g>
</svg>
